<?xml version="1.0" encoding="UTF-8"?>
<svg id="Layer_1" data-name="Layer 1" xmlns="http://www.w3.org/2000/svg" viewBox="0 0 191.31 210.53">
  <path d="M97.28,163.34h-3.09s-6.35.15-6.35.15l-5.91.19c-3.25.1-6.41.2-9.56-.35-1.63-.29-2.8-1.52-3.12-3.06l-2.14-10.11c-1.6-7.55-5.34-15-10.49-20.74l-3.18-3.93-2.28-2.66c-1.58-1.84-3.22-3.47-4.64-5.46-4.5-6.29-7.43-13.33-8.36-21.05l-.27-3.87v-5.35c.26-3.74.88-7.3,1.64-10.96,1.25-5.94,3.77-11.23,7.04-16.27,1.68-2.59,3.41-4.76,5.5-6.99,2.79-2.98,5.49-5.88,9.03-7.99l5.08-3.03,4.86-2.46,8.07-3.39c2.05-.86,4.11-1.56,6.34-1.95,3.61-.63,7.23-.92,10.94-.89l6.91.53,5.47.61,4.76,1.22c11.02,2.83,18.45,7.71,26.18,15.95,3.46,3.69,6.09,7.66,8.04,12.35l2.3,5.57.65,1.78c2.37,6.51,3.26,13.45,3.01,20.38l-.35,4.24c-.65,7.94-4.44,17.09-9.41,23.26l-5.56,6.9c-6.7,7.15-11.57,15.6-13.42,25.29l-.91,4.78c-.28,1.49-.35,2.88-.86,4.34-.59,1.69-1.98,2.92-3.91,2.93l-4.92.03-3.97-.02-2.36-.04c-2.77.19-5.35.18-8.12,0l-2.64.07ZM87.62,122.25c-1.15,5.43-2.08,10.72-2.74,16.22-.09.72.52,1.55.98,1.77,1.76.84,3.08-.92,4.3-2.8l1.97-3.01,13.49-21.05,3.87-6.45,6.79-10.99c1.6-2.58,3.17-4.95,4.27-7.81.23-.59.36-1.46.07-2.01-1.14-2.14-7.1-1.8-10.22-1.41s-9.56.99-10.31-.5c-.14-.29-.17-.96-.08-1.31l1.54-6.05c1.78-7,3.34-13.92,4.6-21.04.18-1.02.56-2.07-.09-2.97-.87-1.2-2.69-.88-3.56.27l-3.33,4.38-4.13,5.73-5.3,7.58c-4.34,6.21-8.34,12.48-12.21,18.98l-2.01,3.37-3.72,5.96c-.98,1.57-1.85,3.5-.62,4.41,1.15.85,2.55.85,3.89.64l3.47-.54,5.88-.63,3.63-.38c.98-.1,2.23-.04,3.06.59.23.18.34.97.27,1.28l-.9,4.08-2.89,13.69Z"/>
  <path d="M78.71,177.75l-4.11-.23c-1.36-.08-2.85-.98-3.31-2.27l-.39-1.83c-.4-1.89.48-3.85,2.47-4.37,1.4-.37,2.93-.42,4.42-.42l6.52.02h5.34s6.47-.24,6.47-.24l8.56-.33,11.85.05c2.88.01,6.22.58,6.26,3.33l.04,2.24c.04,2.36-1.53,3.62-3.74,3.88-3.83.45-7.55.39-11.43.18l-4.77-.27c-5.25-.29-10.33-.19-15.6-.02l-8.57.28Z"/>
  <path d="M114.99,191.41c-2.62.28-5.02-.18-7.55-.22l-10.39-.16-6.02.26c-3.15-.18-6.15-.22-9.29.03-1.87.15-3.68.02-5.53-.24-1.6.08-3.14-.31-4.29-1.47-.68-.69-.82-1.71-.96-2.65-.22-1.43-.12-2.88.98-3.9,1.16-1.08,2.71-1.23,4.26-1.28l4.3-.14h12.33s2.95.15,2.95.15l5.71.3,8.51.16h3.12s3.22.07,3.22.07c1.65.03,3.47.13,4.82,1.12s1.39,2.65,1.3,4.21c-.13,2.17-1.59,3.97-3.97,3.76-1.09-.1-2.28-.15-3.5-.02Z"/>
  <path d="M90.33,209.93c-2.33-.38-4.05-1.57-5.94-2.68-3.27-1.91-5.48-4.88-5.97-8.72-.1-.82-.28-1.75.42-2.42.78-.75,1.88-.59,2.89-.7,2.76-.3,5.34-.21,8.1,0s5.61.05,8.45-.05l6.78-.25,5.95.29c.84.04,2.24.02,2.66.94.58,2.33-.25,4.74-1.61,6.7-2.47,3.56-6.09,5.9-10.33,6.92-3.75.9-7.49.61-11.42-.03Z"/>
  <path d="M24.8,90.11c-2.68.81-5.68.72-8.51.61l-5.16-.2-3.14-.36-4.57-.36c-1.98-.16-3.45-1.39-3.42-3.54l.03-2.54c.02-1.39.28-2.92,1.17-4s2.46-1.27,3.81-1.12l3.58.39c3.22.35,6.29.98,9.48,1.54,2.03.36,4,.73,5.89,1.44s2.68,2.63,2.21,4.51c.34,1.48-.15,2.76-1.36,3.63Z"/>
  <path d="M182.55,90.18l-3.94.41c-3.66.38-7.36.21-10.96-.38-2.07-.34-2.78-2.03-2.69-3.91.07-1.6.17-3.35,1.81-4.16,1.32-.66,2.84-1.11,4.37-1.39,5.39-.98,10.69-1.72,16.15-2.18,1.77-.15,3.34,1.14,3.63,2.76.3,1.74.42,3.43.38,5.16-.02,1.22-.73,2.14-1.81,2.6-2.17.93-4.5,1.2-6.94,1.09Z"/>
  <path d="M96.92,24.92c-.99.74-2.33.71-3.52.7-1.71-.02-3.24-.88-3.5-2.67l-.81-5.66-.24-2.94-.23-5.36c-.09-2.02.04-4.06.3-6.02.21-1.57,1.35-2.75,2.88-2.91,1.35-.14,2.63.01,3.98.15,1.1.11,2.33.25,2.98,1.25.84,1.31.68,2.87.65,4.36l-.1,4.77-.29,4.11-.59,5.75c-.17,1.63,0,3.33-1.53,4.47Z"/>
  <path d="M43.23,46c-2.27,2.6-5.53-.09-7.97-2.2l-6.76-5.88c-1.19-1.03-2.3-2.04-3.38-3.13-2.33-2.36-1.26-5.14,1.05-7.42,1.09-1.08,2.39-1.95,4.02-1.66,1.24.23,2.09,1.16,2.96,2l5.09,4.99c2.16,2.12,4.32,4.07,6.2,6.44.95,1.19,1.41,3.05.64,4.38-.52.89-1.2,1.72-1.86,2.47Z"/>
  <path d="M164.76,143.97l-3.85-2.8-7.07-5.96c-2.1-1.77-4.78-4.07-3.51-6.44.6-1.13,1.42-2.22,2.48-3.05s2.86-.92,4.1-.08l9.16,6.22,5.55,4.31c1.19.92,1.42,2.69.73,3.97-.81,1.5-1.89,2.85-3.16,3.94s-3.1.86-4.43-.11Z"/>
  <path d="M21.88,144.05c-.85-.56-1.63-1.27-2.08-2.14l-.9-1.71c-.85-1.61-.49-3.66,1.07-4.79l8.24-5.96,5.56-3.73c2.51-1.68,5.07-.02,6.64,2.71.89,1.54.5,3.14-.77,4.37-2.13,2.05-4.47,3.76-6.79,5.64l-6.54,5.31c-1.3,1.06-2.85,1.32-4.42.3Z"/>
  <path d="M157.41,42.45l-4.71,3.7c-1.8.9-3.67.28-4.64-1.46-1.79-1.16-2.21-3.37-.9-5.08l2.06-2.49,10.05-10.25c1.83-1.86,4.58-.98,5.89.89l1.65,1.91c2.26,2.62-.99,5.68-3.57,7.85l-5.83,4.92Z"/>
</svg>